<?xml version="1.0" encoding="utf-8"?>
<!-- Generator: Adobe Illustrator 23.0.6, SVG Export Plug-In . SVG Version: 6.00 Build 0)  -->
<svg version="1.1" id="Layer_1" xmlns="http://www.w3.org/2000/svg" xmlns:xlink="http://www.w3.org/1999/xlink" x="0px" y="0px"
	 viewBox="0 0 121.8 140.7" style="enable-background:new 0 0 121.8 140.7;" xml:space="preserve">
<style type="text/css">
	.st0{clip-path:url(#SVGID_2_);fill:#1F1F2B;stroke:#1F1F2B;stroke-miterlimit:10;}
	.st1{clip-path:url(#SVGID_2_);}
	.st2{fill:#232330;stroke:#1F1F2B;stroke-width:3.9262;stroke-miterlimit:10;}
	.st3{fill:#F9F9F2;stroke:#1F1F2B;stroke-width:3.4216;stroke-miterlimit:10;}
</style>
<g>
	<defs>
		<rect id="SVGID_1_" width="121.8" height="140.7"/>
	</defs>
	<clipPath id="SVGID_2_">
		<use xlink:href="#SVGID_1_"  style="overflow:visible;"/>
	</clipPath>
	<rect class="st0" width="121.8" height="140.7"/>
	<g class="st1">
		<path class="st2" d="M89.7,87L60.9,70.3L32.1,87l-16.1-9.3V59.1l28.8-16.6V9.3L60.9,0L77,9.3v33.2l28.8,16.6v18.6L89.7,87z"/>
		<g>
			<line class="st3" x1="60.9" y1="0" x2="60.9" y2="51.8"/>
			<line class="st3" x1="60.9" y1="51.8" x2="16.1" y2="77.7"/>
			<line class="st3" x1="105.8" y1="77.7" x2="60.9" y2="51.8"/>
		</g>
	</g>
	<g class="st1">
		<path class="st2" d="M150.6,51.8l-28.8-16.6L93.1,51.8L77,42.5V24l28.8-16.6v-33.2l16.1-9.3l16.1,9.3V7.3L166.7,24v18.6
			L150.6,51.8z"/>
		<g>
			<line class="st3" x1="121.8" y1="-35.2" x2="121.8" y2="16.6"/>
			<line class="st3" x1="121.8" y1="16.6" x2="77" y2="42.5"/>
			<line class="st3" x1="166.7" y1="42.5" x2="121.8" y2="16.6"/>
		</g>
	</g>
	<g class="st1">
		<path class="st2" d="M28.8,51.8L0,35.2l-28.8,16.6l-16.1-9.3V24l28.8-16.6v-33.2L0-35.2l16.1,9.3V7.3L44.8,24v18.6L28.8,51.8z"/>
		<g>
			<line class="st3" x1="0" y1="-35.2" x2="0" y2="16.6"/>
			<line class="st3" x1="0" y1="16.6" x2="-44.8" y2="42.5"/>
			<line class="st3" x1="44.8" y1="42.5" x2="0" y2="16.6"/>
		</g>
	</g>
	<g class="st1">
		<path class="st2" d="M89.7,157.3l-28.8-16.6l-28.8,16.6L16.1,148v-18.6l28.8-16.6V79.6l16.1-9.3L77,79.6v33.2l28.8,16.6V148
			L89.7,157.3z"/>
		<g>
			<line class="st3" x1="60.9" y1="70.3" x2="60.9" y2="122.1"/>
			<line class="st3" x1="60.9" y1="122.1" x2="16.1" y2="148"/>
			<line class="st3" x1="105.8" y1="148" x2="60.9" y2="122.1"/>
		</g>
	</g>
	<g class="st1">
		<path class="st2" d="M89.7,16.6L60.9,0L32.1,16.6L16.1,7.3v-18.6l28.8-16.6v-33.2l16.1-9.3L77-61.1v33.2l28.8,16.6V7.3L89.7,16.6z
			"/>
		<g>
			<line class="st3" x1="60.9" y1="-70.3" x2="60.9" y2="-18.6"/>
			<line class="st3" x1="60.9" y1="-18.6" x2="16.1" y2="7.3"/>
			<line class="st3" x1="105.8" y1="7.3" x2="60.9" y2="-18.6"/>
		</g>
	</g>
	<g class="st1">
		<path class="st2" d="M150.6,122.1l-28.8-16.6l-28.8,16.6L77,112.9V94.3l28.8-16.6V44.5l16.1-9.3l16.1,9.3v33.2l28.8,16.6v18.6
			L150.6,122.1z"/>
		<g>
			<line class="st3" x1="121.8" y1="35.2" x2="121.8" y2="87"/>
			<line class="st3" x1="121.8" y1="87" x2="77" y2="112.9"/>
			<line class="st3" x1="166.7" y1="112.9" x2="121.8" y2="87"/>
		</g>
	</g>
	<g class="st1">
		<path class="st2" d="M28.8,122.1L0,105.5l-28.8,16.6l-16.1-9.3V94.3l28.8-16.6V44.5L0,35.2l16.1,9.3v33.2l28.8,16.6v18.6
			L28.8,122.1z"/>
		<g>
			<line class="st3" x1="0" y1="35.2" x2="0" y2="87"/>
			<line class="st3" x1="0" y1="87" x2="-44.8" y2="112.9"/>
			<line class="st3" x1="44.8" y1="112.9" x2="0" y2="87"/>
		</g>
	</g>
	<g class="st1">
		<path class="st2" d="M150.6,192.5l-28.8-16.6l-28.8,16.6L77,183.2v-18.6l28.8-16.6v-33.2l16.1-9.3l16.1,9.3V148l28.8,16.6v18.6
			L150.6,192.5z"/>
		<g>
			<line class="st3" x1="121.8" y1="105.5" x2="121.8" y2="157.3"/>
			<line class="st3" x1="121.8" y1="157.3" x2="77" y2="183.2"/>
			<line class="st3" x1="166.7" y1="183.2" x2="121.8" y2="157.3"/>
		</g>
	</g>
	<g class="st1">
		<path class="st2" d="M28.8,192.5L0,175.9l-28.8,16.6l-16.1-9.3v-18.6l28.8-16.6v-33.2L0,105.5l16.1,9.3V148l28.8,16.6v18.6
			L28.8,192.5z"/>
		<g>
			<line class="st3" x1="0" y1="105.5" x2="0" y2="157.3"/>
			<line class="st3" x1="0" y1="157.3" x2="-44.8" y2="183.2"/>
			<line class="st3" x1="44.8" y1="183.2" x2="0" y2="157.3"/>
		</g>
	</g>
</g>
</svg>
